<svg width="800" height="460" viewBox="0 0 800 460" fill="none" xmlns="http://www.w3.org/2000/svg">
<path d="M400.669 51.5053L585.212 196.044Z" fill="black"/>
<path d="M400.669 51.5053L585.212 196.044" stroke="#EA7D7D" stroke-width="11"/>
<path d="M216.126 123.775L400.668 340.583Z" fill="black"/>
<path d="M216.126 123.775L400.668 340.583" stroke="#EA7D7D" stroke-width="11"/>
<path d="M216.126 123.775L400.668 51.5053Z" fill="black"/>
<path d="M216.126 123.775L400.668 51.5053" stroke="#EA7D7D" stroke-width="11"/>
<path d="M216.126 268.313L400.668 340.583Z" fill="black"/>
<path d="M216.126 268.313L400.668 340.583" stroke="#EA7D7D" stroke-width="11"/>
<path d="M400.669 340.583L585.212 196.044Z" fill="black"/>
<path d="M400.669 340.583L585.212 196.044" stroke="#EA7D7D" stroke-width="11"/>
<path d="M216.126 168.943C241.606 168.943 262.262 148.72 262.262 123.775C262.262 98.8289 241.606 78.6064 216.126 78.6064C190.646 78.6064 169.99 98.8289 169.99 123.775C169.99 148.72 190.646 168.943 216.126 168.943Z" fill="#EA7D7D" stroke="#EA7D7D" stroke-width="11"/>
<path d="M400.669 196.044H585.212Z" fill="black"/>
<path d="M400.669 196.044H585.212" stroke="#EA7D7D" stroke-width="11"/>
<path d="M585.211 241.212C610.691 241.212 631.347 220.99 631.347 196.044C631.347 171.098 610.691 150.876 585.211 150.876C559.731 150.876 539.075 171.098 539.075 196.044C539.075 220.99 559.731 241.212 585.211 241.212Z" fill="#EA7D7D" stroke="#EA7D7D" stroke-width="11"/>
<g filter="url(#filter0_d_2_174)">
<path d="M16.1471 136.783H35.6783V272.721H16.1471V136.783ZM45.8541 136.783H59.9166L130.913 237.076L129.839 223.014V136.783H149.174V272.721H135.21L75.9323 189.42L64.1158 172.428L65.1901 189.42V272.721H45.8541V136.783ZM192.651 153.971H151.733V136.783H253.1V153.971H212.182V272.721H192.651V153.971ZM257.71 136.783H296.284C322 136.783 338.569 144.401 345.991 159.635C348.66 165.234 349.995 171.549 349.995 178.58C349.995 185.546 349.051 191.438 347.163 196.256C345.34 201.074 342.768 205.208 339.448 208.658C333.068 215.299 324.279 219.661 313.081 221.744C317.703 236.002 325.548 245.833 336.616 251.237C340.262 253.06 343.322 254.036 345.796 254.166C349.962 254.296 352.892 254.166 354.585 253.776V272.721H350.19C335.542 272.721 323.074 267.513 312.788 257.096C303.738 248.046 297.651 236.653 294.526 222.916H277.241V272.721H257.71V136.783ZM295.014 207.291C306.798 207.291 315.522 205.013 321.186 200.455C326.85 195.898 329.682 188.802 329.682 179.166C329.682 166.341 323.725 158.073 311.811 154.362C307.644 153.06 302.599 152.408 296.674 152.408H277.241V207.291H295.014ZM353.139 136.783H372.671V272.721H353.139V136.783ZM475.327 271.94C468.881 273.112 460.19 273.698 449.253 273.698C438.38 273.698 428.549 272.2 419.76 269.205C411.036 266.211 403.517 261.783 397.202 255.924C383.66 243.359 376.889 225.846 376.889 203.385C376.889 188.737 380.372 176.041 387.339 165.299C396.779 150.781 411.264 141.536 430.796 137.565C436.785 136.393 443.914 135.807 452.182 135.807C460.516 135.807 467.189 136.263 472.202 137.174V155.826C467.644 154.394 460.581 153.678 451.01 153.678C441.505 153.678 433.432 154.85 426.792 157.194C420.151 159.537 414.65 162.89 410.288 167.252C401.564 175.781 397.202 187.825 397.202 203.385C397.202 219.075 401.499 231.51 410.092 240.69C419.402 250.586 432.781 255.533 450.229 255.533C460.45 255.533 468.816 254.752 475.327 253.19V271.94ZM524.663 136.783H538.042L595.366 272.721H575.053L561.284 238.541H500.932L487.26 272.721H467.339L524.663 136.783ZM555.034 222.916L531.206 163.346L507.28 222.916H555.034ZM626.44 153.971H585.522V136.783H686.889V153.971H645.971V272.721H626.44V153.971ZM689.936 136.783H777.729V153.776H709.467V193.815H761.128V210.221H709.467V255.533H777.729V272.721H689.936V136.783Z" fill="#D82E2E"/>
</g>
<path d="M216.126 123.775L400.668 196.044Z" fill="black"/>
<path d="M216.126 123.775L400.668 196.044" stroke="#EA7D7D" stroke-width="11"/>
<path d="M216.126 268.313L400.668 196.044Z" fill="black"/>
<path d="M216.126 268.313L400.668 196.044" stroke="#EA7D7D" stroke-width="11"/>
<g filter="url(#filter1_b_2_174)">
<path d="M400.669 241.212C426.149 241.212 446.804 220.99 446.804 196.044C446.804 171.098 426.149 150.876 400.669 150.876C375.188 150.876 354.533 171.098 354.533 196.044C354.533 220.99 375.188 241.212 400.669 241.212Z" fill="#EA7D7D"/>
<path d="M400.669 241.212C426.149 241.212 446.804 220.99 446.804 196.044C446.804 171.098 426.149 150.876 400.669 150.876C375.188 150.876 354.533 171.098 354.533 196.044C354.533 220.99 375.188 241.212 400.669 241.212Z" stroke="#EA7D7D" stroke-width="11"/>
</g>
<path d="M216.126 268.313L400.668 51.5053Z" fill="black"/>
<path d="M216.126 268.313L400.668 51.5053" stroke="#EA7D7D" stroke-width="11"/>
<g filter="url(#filter2_b_2_174)">
<path d="M216.126 313.482C241.606 313.482 262.262 293.259 262.262 268.313C262.262 243.368 241.606 223.145 216.126 223.145C190.646 223.145 169.99 243.368 169.99 268.313C169.99 293.259 190.646 313.482 216.126 313.482Z" fill="#EA7D7D"/>
<path d="M216.126 313.482C241.606 313.482 262.262 293.259 262.262 268.313C262.262 243.368 241.606 223.145 216.126 223.145C190.646 223.145 169.99 243.368 169.99 268.313C169.99 293.259 190.646 313.482 216.126 313.482Z" stroke="#EA7D7D" stroke-width="10"/>
</g>
<path d="M400.669 96.6737C426.149 96.6737 446.804 76.4511 446.804 51.5054C446.804 26.5596 426.149 6.33707 400.669 6.33707C375.188 6.33707 354.533 26.5596 354.533 51.5054C354.533 76.4511 375.188 96.6737 400.669 96.6737Z" fill="#EA7D7D" stroke="#EA7D7D" stroke-width="11"/>
<path d="M400.669 385.751C426.149 385.751 446.804 365.528 446.804 340.583C446.804 315.637 426.149 295.414 400.669 295.414C375.188 295.414 354.533 315.637 354.533 340.583C354.533 365.528 375.188 385.751 400.669 385.751Z" fill="#EA7D7D" stroke="#EA7D7D" stroke-width="10"/>
<defs>
<filter id="filter0_d_2_174" x="7.14709" y="132.807" width="779.582" height="155.891" filterUnits="userSpaceOnUse" color-interpolation-filters="sRGB">
<feFlood flood-opacity="0" result="BackgroundImageFix"/>
<feColorMatrix in="SourceAlpha" type="matrix" values="0 0 0 0 0 0 0 0 0 0 0 0 0 0 0 0 0 0 127 0" result="hardAlpha"/>
<feOffset dy="6"/>
<feGaussianBlur stdDeviation="4.5"/>
<feComposite in2="hardAlpha" operator="out"/>
<feColorMatrix type="matrix" values="0 0 0 0 0 0 0 0 0 0 0 0 0 0 0 0 0 0 0.25 0"/>
<feBlend mode="normal" in2="BackgroundImageFix" result="effect1_dropShadow_2_174"/>
<feBlend mode="normal" in="SourceGraphic" in2="effect1_dropShadow_2_174" result="shape"/>
</filter>
<filter id="filter1_b_2_174" x="319.033" y="115.376" width="163.271" height="161.337" filterUnits="userSpaceOnUse" color-interpolation-filters="sRGB">
<feFlood flood-opacity="0" result="BackgroundImageFix"/>
<feGaussianBlur in="BackgroundImageFix" stdDeviation="15"/>
<feComposite in2="SourceAlpha" operator="in" result="effect1_backgroundBlur_2_174"/>
<feBlend mode="normal" in="SourceGraphic" in2="effect1_backgroundBlur_2_174" result="shape"/>
</filter>
<filter id="filter2_b_2_174" x="134.99" y="188.145" width="162.271" height="160.337" filterUnits="userSpaceOnUse" color-interpolation-filters="sRGB">
<feFlood flood-opacity="0" result="BackgroundImageFix"/>
<feGaussianBlur in="BackgroundImageFix" stdDeviation="15"/>
<feComposite in2="SourceAlpha" operator="in" result="effect1_backgroundBlur_2_174"/>
<feBlend mode="normal" in="SourceGraphic" in2="effect1_backgroundBlur_2_174" result="shape"/>
</filter>
</defs>
</svg>